<svg width="65" height="65" viewBox="0 0 65 65" fill="none" xmlns="http://www.w3.org/2000/svg">
<rect width="65" height="65" fill="white"/>
<path d="M0 0V65H65V0H0ZM30.7062 54.427H26.2321V25.789H40.836V30.2419H30.7062V54.427ZM49.8263 37.8604C47.2961 40.1173 44.1072 41.5009 40.7305 41.8068V54.4692H36.2987V37.375L38.6412 37.5016C41.6137 37.5401 44.5049 36.5315 46.8084 34.6526C47.7192 33.6962 48.4204 32.5603 48.8674 31.3176C49.3144 30.0748 49.4972 28.7525 49.4042 27.4351C49.4813 26.2984 49.3139 25.1584 48.9135 24.0918C48.5131 23.0252 47.8888 22.0568 47.0828 21.2516C44.6863 19.3636 41.6886 18.4044 38.6412 18.5503H20.6607V54.427H16.1867V14.1185H38.4724C42.7101 13.9421 46.8644 15.3319 50.1429 18.0227C51.3884 19.2426 52.363 20.7113 53.003 22.3331C53.6429 23.9549 53.934 25.6933 53.8571 27.4351C53.9521 29.3581 53.6423 31.2796 52.948 33.0755C52.2537 34.8713 51.1902 36.5014 49.8263 37.8604Z" fill="#BE0106"/>
</svg>
